<svg xmlns="http://www.w3.org/2000/svg" xmlns:xlink="http://www.w3.org/1999/xlink" viewBox="0 0 1501.1 1469.75"><defs><style>.cls-1{fill:none;}.cls-2{clip-path:url(#clip-path);}.cls-3{fill:#741447;}.cls-4{fill:#5a2466;}.cls-5{fill:#1b1549;}.cls-6{fill:#a61e57;}.cls-7{fill:#831618;}.cls-8{fill:#fff;}</style><clipPath id="clip-path"><circle class="cls-1" cx="745.34" cy="731.32" r="705"/></clipPath></defs><title>logo</title><g id="Layer_2" data-name="Layer 2"><g id="Logo"><circle id="Black_Circle" data-name="Black Circle" cx="745.34" cy="731.32" r="705"/><g id="Circle"><g class="cls-2"><path d="M1037.68,63,733.12,813.1h765.16s23.5-218.08-70.5-392.92S1259.52,137.24,1037.68,63Z"/><polygon class="cls-3" points="1037.68 62.98 770.72 0 733.12 813.1 1037.68 62.98"/><polygon class="cls-4" points="770.72 0 318.58 50.76 311.06 158.86 5.56 897.7 62.9 1037.76 733.12 813.1 770.72 0"/><polygon class="cls-5" points="733.12 813.1 62.9 1037.76 218 1284.04 488.72 1422.22 733.12 813.1"/><polygon class="cls-6" points="733.12 813.1 1501.1 813.1 1464.44 888.3 488.72 1422.22 733.12 813.1"/><path class="cls-7" d="M1464.44,888.3,488.72,1422.22S702.1,1519,955.9,1436.32s369.42-243.46,369.42-243.46S1440,1073.48,1464.44,888.3Z"/><path d="M311.06,158.86,5.56,897.7S-26.4,607.24,62.9,438,311.06,158.86,311.06,158.86Z"/></g></g><path id="United" class="cls-8" d="M1270.71,654.13a315.57,315.57,0,0,0-23.12-116,299.2,299.2,0,0,0-65.34-99.08c-62-62.31-140-98.05-213.84-98.05S817,372.64,759.06,424.23C719.87,384.7,666.8,356.91,606.85,345c-67.41-13.38-137.42-5.89-197.14,21.1a327.65,327.65,0,0,0-123.07,97.45c-33.21,42.72-55,92.5-63.09,143.94-5.43,34.65-4.73,68.53,2.07,100.7,6.52,30.83,19.49,60.74,39.64,91.44,15.64,23.83,35,47.38,61,74.1a271.57,271.57,0,0,0,29.23,26.52,78.91,78.91,0,0,0-.85,11.55,76.71,76.71,0,0,0,22.57,54.64l3.72,3.73h0A77.39,77.39,0,0,0,462.43,988a74.82,74.82,0,0,0-4.26,25,73.94,73.94,0,0,0,21.75,52.68l3.54,3.55a74.56,74.56,0,0,0,72.07,19.21,75.31,75.31,0,0,0-.55,8.91,72.11,72.11,0,0,0,21.21,51.36l3.42,3.43A72.45,72.45,0,0,0,631,1173.37a73.39,73.39,0,0,0,21.48-3.23,68.74,68.74,0,0,0,19.14,60.51l3.17,3.17h0a68.72,68.72,0,0,0,48.7,20.2,67.22,67.22,0,0,0,47.73-19.67l72.45-72.44a67.64,67.64,0,0,0,10.18-13,155.91,155.91,0,0,0,38.78,5.33c22.68,0,42.41-6.22,58.92-18.62,26-19.5,36.72-49.77,41.16-71.08,23.59-.19,43.83-7.19,60.38-20.93,24.13-20,33.47-49.67,37.07-69.07,34-7.93,58.15-23.95,71.87-47.76,13.9-24.13,13-50.27,9.91-67.91,12.88-9.22,22.14-21.45,30.07-31.93l1.62-2.14q3.35-4.39,6.69-8.69c9.56-12.35,19.45-25.12,27.8-40.22C1259.85,736.49,1271.13,694.4,1270.71,654.13ZM407.56,943.59l-3.73-3.72a39.85,39.85,0,0,1,0-56.12l86.43-86.43a39.75,39.75,0,0,1,56.13,0l3.72,3.73a39.86,39.86,0,0,1,0,56.12l-86.44,86.42A39.73,39.73,0,0,1,407.56,943.59Zm102.49,99-3.54-3.55a37,37,0,0,1,0-52.17l82.32-82.32a37,37,0,0,1,52.19,0l3.54,3.54a37.06,37.06,0,0,1,0,52.18l-82.32,82.31A36.94,36.94,0,0,1,510.05,1042.63Zm96.15,82.91-3.43-3.42a35.21,35.21,0,0,1,0-49.56L682.35,993a35.08,35.08,0,0,1,49.56,0l3.43,3.42a35.2,35.2,0,0,1,0,49.56l-79.58,79.57A35.08,35.08,0,0,1,606.2,1125.54Zm210.86,9.78-72.44,72.44c-11.79,11.78-31.19,11.54-43.26-.53h0l-3.17-3.17a31,31,0,0,1-9.16-21.87,29.65,29.65,0,0,1,8.64-21.38l72.44-72.44c11.79-11.78,31.19-11.54,43.26.53l3.17,3.17a31.78,31.78,0,0,1,9.16,21.53A29.36,29.36,0,0,1,817.06,1135.32Zm304.22-232c-7.27,12.62-22.26,21.37-44.63,26.07L857.89,718.2A23.5,23.5,0,1,0,825.25,752l219.18,211.58c-2.08,12.84-7.89,32.64-21.39,43.84-9.87,8.2-23,11.36-40.08,9.62L765.06,811.32a23.5,23.5,0,1,0-32.27,34.17l215.1,203.08c-2.22,14.76-8.8,37.7-24.73,49.56-13.68,10.18-33.75,11.77-59.65,4.73-.41-.11-.82-.21-1.24-.3a69.78,69.78,0,0,0-19.14-37.08l-3.17-3.17a68.75,68.75,0,0,0-60.16-19.22,73,73,0,0,0,3.34-21.89,72.17,72.17,0,0,0-21.21-51.36l-3.43-3.43a72.61,72.61,0,0,0-66.67-19.6,76.1,76.1,0,0,0,1.07-12.58,74,74,0,0,0-21.75-52.68L667.6,878a74.56,74.56,0,0,0-74.48-18.54,77.65,77.65,0,0,0-16.41-85L573,770.74a77.37,77.37,0,0,0-109.29,0l-86.44,86.43-.12.12C370.8,851.85,365.07,846.19,360,841c-34.65-35.61-76-84-88.39-142.49-5.61-26.56-6.16-54.72-1.62-83.7,13.95-88.91,74.9-167.79,159.09-205.84C529.26,363.66,655.23,385.65,726.39,458c-1.1,1.33-2.2,2.67-3.27,4L547,653.18l7.71,14.67c1.67,3.18,11.12,19.65,33.3,31.95,19.69,10.93,53.88,20.58,104.95,4.5C759.32,683.38,819.5,618,847.79,583.36l276.13,276.13C1126.26,867.71,1130.34,887.57,1121.28,903.3ZM1197,753.13c-6.59,11.93-15,22.74-23.83,34.19-2.31,3-4.63,6-7,9l-1.67,2.2c-5.36,7.08-10.53,13.92-16.11,18.94l-306-306-16.09,22.76c-.72,1-72.52,101.56-147.54,125.19-26.61,8.38-49.39,8.5-65.89.35a48.86,48.86,0,0,1-5.34-3.05l150.7-163.49.59-.65.54-.68C809.44,428.82,891.48,388,968.41,388c61.45,0,127.25,30.69,180.54,84.21,47.48,47.69,74,112.46,74.76,182.38C1224.05,686.79,1214.8,720.85,1197,753.13Z"/></g></g></svg>